# xmcd CD database file
#
# Track frame offsets:
#	150
#	4477
#	28146
#	44703
#	60113
#	77499
#	90442
#	111489
#	130204
#	147700
#	164130
#	170182
#	184988
#	199433
#	210312
#	215750
#	225814
#	247083
#	264917
#
# Disc length: 3769 seconds
#
# Revision: 4
# Processed by: cddbd v1.5.2PL0 Copyright (c) Steve Scherf et al.
# Submitted via: CDex 1.70beta2
#
DISCID=1f0eb713
DTITLE=Priscilla Hernandez - Ancient Shadows
DYEAR=2006
DGENRE=New Age
TTITLE0=Priscilla Hernandez - Facing the dream (opening credits)
TTITLE1=Priscilla Hernandez - Away
TTITLE2=Priscilla Hernandez - Ancient shadow
TTITLE3=Priscilla Hernandez - But if you go
TTITLE4=Priscilla Hernandez - I steal the leaves
TTITLE5=Priscilla Hernandez - The willow's lullaby
TTITLE6=Priscilla Hernandez - The call of the nymph
TTITLE7=Priscilla Hernandez - Nothing
TTITLE8=Priscilla Hernandez - Haunted
TTITLE9=Priscilla Hernandez - Nightmare
TTITLE10=Priscilla Hernandez - Fairy tale
TTITLE11=Priscilla Hernandez - The realms of twilight
TTITLE12=Priscilla Hernandez - The voice of the night
TTITLE13=Priscilla Hernandez - Lament
TTITLE14=Priscilla Hernandez - Ahora que te has ido
TTITLE15=Priscilla Hernandez - The prince and the fairy
TTITLE16=Priscilla Hernandez - I'm right here
TTITLE17=Priscilla Hernandez - Sueño muerto
TTITLE18=Priscilla Hernandez - Facing the dream (closing credits)
EXTD=YEAR: 2006
EXTT0=
EXTT1=
EXTT2=
EXTT3=
EXTT4=
EXTT5=
EXTT6=
EXTT7=
EXTT8=
EXTT9=
EXTT10=
EXTT11=
EXTT12=
EXTT13=
EXTT14=
EXTT15=
EXTT16=
EXTT17=
EXTT18=
PLAYORDER=
